# xmcd
#
# Track frame offsets:
#	150
#	16225
#	31318
#	47733
#	62088
#	77035
#	92318
#	110138
#	127385
#	140263
#
# Disc length: 2031
#
# Revision: 1
# Processed by: cddbd v1.5.1PL0 Copyright (c) Steve Scherf et al.
# Submitted via: audiograbber 1.83.01
# Normalized: r0:DSETVAR1
#
DISCID=8207ed0a
DTITLE=Various Artist - Billboard - Top Country Hits 1987
DYEAR=1987
DGENRE=Country
TTITLE0=Randy Travis - Forever And Ever, Amen
TTITLE1=The Forester Sisters - You Again
TTITLE2=Exile - She's Too Good To Be True
TTITLE3=Dan Seals - One Friend
TTITLE4=Highway 101 - Somewhere Tonight
TTITLE5=Nitty Gritty Dirt Band - Fishin' In The Dark
TTITLE6=Rosanne Cash - The Way We Make A Broken Heart
TTITLE7=Steve Wariner - The Weekend
TTITLE8=The O'Kanes - Can't Stop My Heart From Loving You
TTITLE9=Hank Williams, Jr. - Born To Boogie
EXTD=
EXTT0=\n
EXTT1=\n
EXTT2=\n
EXTT3=\n
EXTT4=\n
EXTT5=\n
EXTT6=\n
EXTT7=\n
EXTT8=\n
EXTT9=\n
PLAYORDER=
